<svg xmlns="http://www.w3.org/2000/svg" display="block" preserveAspectRatio="xMidYMid" style="margin:auto;background:0 0" viewBox="0 0 100 100"><rect width="5" height="3" x="47.5" y="32.5" fill=" #F47029" rx="1.7" ry="1.5"><animate attributeName="opacity" begin="-1.0087719298245614s" dur="1.0526315789473684s" keyTimes="0;1" repeatCount="indefinite" values="1;0"/></rect><rect width="5" height="3" x="47.5" y="32.5" fill=" #F47029" rx="1.7" ry="1.5" transform="rotate(15 50 50)"><animate attributeName="opacity" begin="-0.9649122807017544s" dur="1.0526315789473684s" keyTimes="0;1" repeatCount="indefinite" values="1;0"/></rect><rect width="5" height="3" x="47.5" y="32.5" fill=" #F47029" rx="1.7" ry="1.5" transform="rotate(30 50 50)"><animate attributeName="opacity" begin="-0.9210526315789473s" dur="1.0526315789473684s" keyTimes="0;1" repeatCount="indefinite" values="1;0"/></rect><rect width="5" height="3" x="47.5" y="32.5" fill=" #F47029" rx="1.7" ry="1.5" transform="rotate(45 50 50)"><animate attributeName="opacity" begin="-0.8771929824561403s" dur="1.0526315789473684s" keyTimes="0;1" repeatCount="indefinite" values="1;0"/></rect><rect width="5" height="3" x="47.5" y="32.5" fill=" #F47029" rx="1.7" ry="1.5" transform="rotate(60 50 50)"><animate attributeName="opacity" begin="-0.8333333333333333s" dur="1.0526315789473684s" keyTimes="0;1" repeatCount="indefinite" values="1;0"/></rect><rect width="5" height="3" x="47.5" y="32.5" fill=" #F47029" rx="1.7" ry="1.5" transform="rotate(75 50 50)"><animate attributeName="opacity" begin="-0.7894736842105263s" dur="1.0526315789473684s" keyTimes="0;1" repeatCount="indefinite" values="1;0"/></rect><rect width="5" height="3" x="47.5" y="32.5" fill=" #F47029" rx="1.7" ry="1.5" transform="rotate(90 50 50)"><animate attributeName="opacity" begin="-0.7456140350877193s" dur="1.0526315789473684s" keyTimes="0;1" repeatCount="indefinite" values="1;0"/></rect><rect width="5" height="3" x="47.5" y="32.5" fill=" #F47029" rx="1.7" ry="1.5" transform="rotate(105 50 50)"><animate attributeName="opacity" begin="-0.7017543859649122s" dur="1.0526315789473684s" keyTimes="0;1" repeatCount="indefinite" values="1;0"/></rect><rect width="5" height="3" x="47.5" y="32.5" fill=" #F47029" rx="1.7" ry="1.5" transform="rotate(120 50 50)"><animate attributeName="opacity" begin="-0.6578947368421052s" dur="1.0526315789473684s" keyTimes="0;1" repeatCount="indefinite" values="1;0"/></rect><rect width="5" height="3" x="47.5" y="32.5" fill=" #F47029" rx="1.7" ry="1.5" transform="rotate(135 50 50)"><animate attributeName="opacity" begin="-0.6140350877192983s" dur="1.0526315789473684s" keyTimes="0;1" repeatCount="indefinite" values="1;0"/></rect><rect width="5" height="3" x="47.5" y="32.5" fill=" #F47029" rx="1.7" ry="1.5" transform="rotate(150 50 50)"><animate attributeName="opacity" begin="-0.5701754385964912s" dur="1.0526315789473684s" keyTimes="0;1" repeatCount="indefinite" values="1;0"/></rect><rect width="5" height="3" x="47.5" y="32.5" fill=" #F47029" rx="1.7" ry="1.5" transform="rotate(165 50 50)"><animate attributeName="opacity" begin="-0.5263157894736842s" dur="1.0526315789473684s" keyTimes="0;1" repeatCount="indefinite" values="1;0"/></rect><rect width="5" height="3" x="47.5" y="32.5" fill=" #F47029" rx="1.7" ry="1.5" transform="rotate(180 50 50)"><animate attributeName="opacity" begin="-0.4824561403508772s" dur="1.0526315789473684s" keyTimes="0;1" repeatCount="indefinite" values="1;0"/></rect><rect width="5" height="3" x="47.5" y="32.5" fill=" #F47029" rx="1.7" ry="1.5" transform="rotate(195 50 50)"><animate attributeName="opacity" begin="-0.43859649122807015s" dur="1.0526315789473684s" keyTimes="0;1" repeatCount="indefinite" values="1;0"/></rect><rect width="5" height="3" x="47.5" y="32.5" fill=" #F47029" rx="1.7" ry="1.5" transform="rotate(210 50 50)"><animate attributeName="opacity" begin="-0.39473684210526316s" dur="1.0526315789473684s" keyTimes="0;1" repeatCount="indefinite" values="1;0"/></rect><rect width="5" height="3" x="47.5" y="32.5" fill=" #F47029" rx="1.7" ry="1.5" transform="rotate(225 50 50)"><animate attributeName="opacity" begin="-0.3508771929824561s" dur="1.0526315789473684s" keyTimes="0;1" repeatCount="indefinite" values="1;0"/></rect><rect width="5" height="3" x="47.5" y="32.5" fill=" #F47029" rx="1.7" ry="1.5" transform="rotate(240 50 50)"><animate attributeName="opacity" begin="-0.30701754385964913s" dur="1.0526315789473684s" keyTimes="0;1" repeatCount="indefinite" values="1;0"/></rect><rect width="5" height="3" x="47.5" y="32.5" fill=" #F47029" rx="1.7" ry="1.5" transform="rotate(255 50 50)"><animate attributeName="opacity" begin="-0.2631578947368421s" dur="1.0526315789473684s" keyTimes="0;1" repeatCount="indefinite" values="1;0"/></rect><rect width="5" height="3" x="47.5" y="32.5" fill=" #F47029" rx="1.7" ry="1.5" transform="rotate(270 50 50)"><animate attributeName="opacity" begin="-0.21929824561403508s" dur="1.0526315789473684s" keyTimes="0;1" repeatCount="indefinite" values="1;0"/></rect><rect width="5" height="3" x="47.5" y="32.5" fill=" #F47029" rx="1.7" ry="1.5" transform="rotate(285 50 50)"><animate attributeName="opacity" begin="-0.17543859649122806s" dur="1.0526315789473684s" keyTimes="0;1" repeatCount="indefinite" values="1;0"/></rect><rect width="5" height="3" x="47.5" y="32.5" fill=" #F47029" rx="1.7" ry="1.5" transform="rotate(300 50 50)"><animate attributeName="opacity" begin="-0.13157894736842105s" dur="1.0526315789473684s" keyTimes="0;1" repeatCount="indefinite" values="1;0"/></rect><rect width="5" height="3" x="47.5" y="32.5" fill=" #F47029" rx="1.7" ry="1.5" transform="rotate(315 50 50)"><animate attributeName="opacity" begin="-0.08771929824561403s" dur="1.0526315789473684s" keyTimes="0;1" repeatCount="indefinite" values="1;0"/></rect><rect width="5" height="3" x="47.5" y="32.5" fill=" #F47029" rx="1.7" ry="1.5" transform="rotate(330 50 50)"><animate attributeName="opacity" begin="-0.043859649122807015s" dur="1.0526315789473684s" keyTimes="0;1" repeatCount="indefinite" values="1;0"/></rect><rect width="5" height="3" x="47.5" y="32.5" fill=" #F47029" rx="1.7" ry="1.5" transform="rotate(345 50 50)"><animate attributeName="opacity" begin="0s" dur="1.0526315789473684s" keyTimes="0;1" repeatCount="indefinite" values="1;0"/></rect></svg>

